#!OML:ASF Y:\EmotionMaleHayes\Project 1\Capture day 1\Session 1\Male1.ASF
:FULLY-SPECIFIED
:DEGREES
836
root 46.602 16.8908 1.19371 -7.33158 -12.2953 -1.24385
lowerback 19.0264 2.08282 6.41087
upperback 5.92182 3.9664 1.87391
thorax -3.92675 1.9395 -2.48831
lowerneck -18.69 -10.8336 -5.32532
upperneck 27.8333 -17.4816 10.5011
head 14.1299 -6.81824 1.80851
rclavicle 1.61016e-014 -1.59028e-014
rhumerus -32.2332 28.2834 -95.7886
rradius 73.1241
rwrist -17.6994
rhand -21.6693 -29.4707
rfingers 7.12502
rthumb 4.72814 -59.3979
lclavicle 1.61016e-014 -1.59028e-014
lhumerus -55.3921 -17.909 93.0715
lradius 47.7239
lwrist 13.2779
lhand -26.9591 -20.0759
lfingers 7.12502
lthumb -0.380617 9.90351
rfemur 14.7252 8.69064 35.5507
rtibia 19.1987
rfoot -23.7704 -1.20094
rtoes 24.3028
lfemur -14.3058 3.51814 -2.78419
ltibia 35.3867
lfoot -12.0573 9.79155
ltoes -13.1099
837
root 46.5813 16.6671 1.45259 -2.20635 -13.6564 -1.8143
lowerback 13.0305 2.65196 6.19759
upperback 4.68085 4.29286 1.82003
thorax -2.04175 2.15179 -2.1887
lowerneck -18.5142 -10.8653 -5.57809
upperneck 27.9234 -17.5785 10.7804
head 14.2063 -6.8566 1.94373
rclavicle 2.10712e-014 8.74653e-015
rhumerus -31.6399 29.5784 -96.0535
rradius 75.4886
rwrist -19.0161
rhand -21.4515 -28.5794
rfingers 7.12502
rthumb 4.9384 -58.5018
lclavicle 2.10712e-014 8.74653e-015
lhumerus -57.624 -16.0403 92.484
lradius 48.3867
lwrist 14.2226
lhand -26.9799 -20.3002
lfingers 7.12502
lthumb -0.400688 9.67913
rfemur 10.036 11.0804 36.2866
rtibia 20.5337
rfoot -24.3368 -3.0334
rtoes 19.7533
lfemur -20.6957 4.33262 -0.763921
ltibia 32.6919
lfoot -12.3436 10.913
ltoes -12.2327
838
root 46.5658 16.6179 1.72072 -2.22711 -15.3673 -1.96265
lowerback 12.7971 2.99193 6.05823
upperback 4.59797 4.70604 1.72409
thorax -1.97305 2.35694 -2.25303
lowerneck -18.3784 -10.9171 -5.17846
upperneck 27.8648 -17.7199 10.5908
head 14.0988 -6.91501 1.78607
rclavicle 4.35338e-014 3.73715e-014
rhumerus -31.1463 30.1809 -96.1201
rradius 77.9555
rwrist -19.9362
rhand -21.4499 -29.9039
rfingers 7.12502
rthumb 4.93995 -59.8263
lclavicle 4.35338e-014 3.73715e-014
lhumerus -59.8627 -14.5515 92.0194
lradius 49.1288
lwrist 15.3702
lhand -26.7641 -20.5041
lfingers 7.12502
lthumb -0.192227 9.4756
rfemur 10.9216 11.6665 36.8136
rtibia 21.3042
rfoot -24.7918 -4.2405
rtoes 13.0835
lfemur -19.8941 3.21272 0.745373
ltibia 27.8079
lfoot -12.5552 11.7089
ltoes -11.4129
839
root 46.5575 16.5651 1.99093 -2.16346 -16.9269 -2.10399
lowerback 12.4648 3.30592 6.02089
upperback 4.51168 5.09114 1.60981
thorax -1.84538 2.55129 -2.37919
lowerneck -18.0812 -11.0574 -5.68455
upperneck 27.7604 -17.9736 11.176
head 14.1512 -7.02224 2.0502
rclavicle 4.07509e-015 -4.92986e-014
rhumerus -30.0107 30.2785 -96.0102
rradius 79.7857
rwrist -20.8149
rhand -20.5926 -28.4894
rfingers 7.12502
rthumb 5.76771 -58.3909
lclavicle 4.07509e-015 -4.92986e-014
lhumerus -62.1058 -13.3133 91.685
lradius 50.0005
lwrist 16.8964
lhand -27.0243 -20.4658
lfingers 7.12502
lthumb -0.443573 9.51351
rfemur 11.7877 12.8018 37.3169
rtibia 22.7278
rfoot -26.3089 -2.77611
rtoes 21.9541
lfemur -19.2771 1.94495 2.1034
ltibia 23.1699
lfoot -11.1375 12.9521
ltoes -22.4754
840
root 46.5667 16.5079 2.26426 -1.91605 -18.2982 -1.97341
lowerback 11.8639 3.54667 5.95605
upperback 4.38899 5.35823 1.38266
thorax -1.61 2.69162 -2.57038
lowerneck -18.1636 -10.9875 -5.14629
upperneck 27.7293 -17.9611 10.9475
head 14.0653 -6.99295 1.87778
rclavicle 3.1408e-014 -7.15625e-015
rhumerus -29.0907 30.0605 -96.0087
rradius 82.14
rwrist -21.455
rhand -22.1883 -30.2045
rfingers 7.12502
rthumb 4.2269 -60.1423
lclavicle 3.1408e-014 -7.15625e-015
lhumerus -64.1323 -12.0229 91.0996
lradius 50.742
lwrist 17.3735
lhand -27.39 -20.1598
lfingers 7.12502
lthumb -0.796777 9.81851
rfemur 12.2993 13.1875 37.1152
rtibia 23.7013
rfoot -27.258 -2.32171
rtoes 25.6164
lfemur -19.1554 0.647486 2.86458
ltibia 18.8943
lfoot -8.11879 14.4947
ltoes -39.5826
841
root 46.5667 16.4403 2.53219 -1.55702 -19.7268 -1.94971
lowerback 11.2205 3.8494 5.90239
upperback 4.25521 5.70853 1.15251
thorax -1.35176 2.87429 -2.77102
lowerneck -17.9631 -11.0847 -5.89616
upperneck 27.6394 -18.1835 11.8361
head 14.2133 -7.06696 2.29825
rclavicle -2.64384e-014 1.98785e-014
rhumerus -29.0907 30.0605 -96.0087
rradius 82.14
rwrist -21.455
rhand -22.1883 -30.2045
rfingers 7.12502
rthumb 4.2269 -60.1423
lclavicle -2.64384e-014 1.98785e-014
lhumerus -65.9745 -11.271 90.6781
lradius 51.5298
lwrist 18.4715
lhand -27.8866 -19.7791
lfingers 7.12502
lthumb -1.27643 10.1968
rfemur 12.2431 12.6197 36.4775
rtibia 25.0068
rfoot -27.9741 -2.1711
rtoes 24.3409
lfemur -19.025 -1.75888 4.27989
ltibia 15.5193
lfoot -10.2361 14.7293
ltoes -33.9441
842
root 46.5595 16.3719 2.79623 -1.3318 -21.1127 -2.26794
lowerback 10.8243 4.10045 6.02692
upperback 4.21922 6.02593 1.132
thorax -1.12953 3.04008 -2.85927
lowerneck -18.1176 -11.0899 -4.89723
upperneck 27.4455 -18.1861 11.0336
head 13.9416 -7.07713 1.8262
rclavicle 9.44227e-015 2.38542e-015
rhumerus -29.0907 30.0605 -96.0087
rradius 82.14
rwrist -21.455
rhand -22.1883 -30.2045
rfingers 7.12502
rthumb 4.2269 -60.1423
lclavicle 9.44227e-015 2.38542e-015
lhumerus -67.5234 -10.4968 90.2994
lradius 52.1774
lwrist 19.3136
lhand -27.8073 -19.5521
lfingers 7.12502
lthumb -1.19978 10.4242
rfemur 12.4146 12.1434 36.3149
rtibia 26.5243
rfoot -28.7542 -1.97053
rtoes 23.0405
lfemur -18.8101 -3.77652 5.98714
ltibia 12.5364
lfoot -10.9993 14.7096
ltoes -32.0578
843
root 46.5617 16.2962 3.06132 -1.2011 -22.3516 -2.5247
lowerback 10.5165 4.23167 6.16379
upperback 4.22432 6.19039 1.17581
thorax -0.930977 3.12915 -2.87608
lowerneck -17.9944 -11.1531 -5.49165
upperneck 27.2525 -18.2355 11.51
head 13.9672 -7.11536 2.09278
rclavicle -7.7526e-015 4.37326e-015
rhumerus -29.0907 30.0605 -96.0087
rradius 82.14
rwrist -21.455
rhand -22.1883 -30.2045
rfingers 7.12502
rthumb 4.2269 -60.1423
lclavicle -7.7526e-015 4.37326e-015
lhumerus -68.9797 -9.41022 89.9678
lradius 52.7737
lwrist 19.4455
lhand -27.617 -19.4335
lfingers 7.12502
lthumb -1.01605 10.5438
rfemur 12.6738 11.5976 35.9887
rtibia 28.0192
rfoot -29.3854 -1.52008
rtoes 21.8667
lfemur -18.7092 -5.21629 7.32201
ltibia 10.5158
lfoot -10.8988 14.0264
ltoes -33.1216
844
root 46.5697 16.2085 3.32732 -1.08696 -23.5926 -2.79565
lowerback 10.2869 4.32573 6.41183
upperback 4.22405 6.3207 1.21601
thorax -0.770002 3.20108 -2.95993
lowerneck -18.1254 -11.0313 -4.93068
upperneck 27.0612 -18.0356 11.0478
head 13.7674 -7.04018 1.86424
rclavicle 9.14409e-015 -1.39149e-014
rhumerus -29.0907 30.0605 -96.0087
rradius 82.14
rwrist -21.455
rhand -22.1883 -30.2045
rfingers 7.12502
rthumb 4.2269 -60.1423
lclavicle 9.14409e-015 -1.39149e-014
lhumerus -70.4497 -8.43908 89.7258
lradius 53.4416
lwrist 19.2836
lhand -27.499 -19.332
lfingers 7.12502
lthumb -0.902038 10.6458
rfemur 12.9333 11.4669 35.9073
rtibia 29.8354
rfoot -29.9694 -1.9456
rtoes 17.05
lfemur -18.5614 -7.20626 8.82254
ltibia 9.2302
lfoot -12.8383 12.142
ltoes -20.6331
845
root 46.5734 16.1104 3.58327 -0.784717 -24.8575 -3.05883
lowerback 9.96564 4.47505 6.58764
upperback 4.17398 6.51193 1.23209
thorax -0.609626 3.30234 -3.02708
lowerneck -17.9847 -11.097 -5.07354
upperneck 26.7475 -18.0124 10.9775
head 13.6063 -7.08018 1.86951
rclavicle 2.48481e-014 -8.34896e-015
rhumerus -29.0907 30.0605 -96.0087
rradius 82.14
rwrist -21.455
rhand -22.1883 -30.2045
rfingers 7.12502
rthumb 4.2269 -60.1423
lclavicle 2.48481e-014 -8.34896e-015
lhumerus -71.6616 -7.71937 89.4617
lradius 54.0079
lwrist 19.0264
lhand -27.3313 -19.356
lfingers 7.12502
lthumb -0.740072 10.6225
rfemur 12.9801 12.3841 36.5623
rtibia 31.9308
rfoot -30.2625 -3.4536
rtoes 12.5369
lfemur -18.8465 -7.50259 9.87746
ltibia 9.58097
lfoot -13.4318 9.36365
ltoes -14.4069
